<svg width="420" height="478" viewBox="0 0 420 478" fill="none" xmlns="http://www.w3.org/2000/svg">
<ellipse cx="168" cy="306" rx="168" ry="172" fill="#F88158"/>
<path d="M104.491 463.667C59.2667 405.725 49.6862 368.878 55.4578 296.853C62.8192 217.913 95.4541 183.455 157.211 136.389" stroke="black" stroke-width="6"/>
<path d="M22.3486 224.778C20.8652 282.348 28.3772 299.928 54.9557 291.619C76.6236 300.665 92.3755 293.153 119.217 276.077C181.293 223.338 227.962 203.507 293.615 195.315M3.08258 328.143L54.9557 343.685C162.295 352.976 223.064 353.407 336 317.264" stroke="black" stroke-width="6"/>
<path d="M26.2018 395.185C31.0536 388.442 37.0424 386.977 56.2569 390.408C104.54 400.421 130.28 414.077 175.706 441.37" stroke="black" stroke-width="6"/>
<path d="M174.165 439.778C201.64 451.2 218.724 454.725 255.083 450.926" stroke="black" stroke-width="6"/>
<path d="M108 133L72 164L117 146L156 138H208L237 151L268 173L292 188L312 227L329 269V290V325V360L342 339L364 316L374 284L388 250L393 222V195L420 164L393 180L382 195L374 211V234L364 250L352 269V258L364 234L369 204V180L382 164L400 138L409 111L388 133L369 138L342 151L329 164V146L346 125L374 106L393 81L400 57L409 19L400 37L388 51L358 69L329 81L307 86L292 97L277 106L268 126L262 146V133V117L277 97L292 86L318 69H312L299 74L277 81L254 92L230 117L237 106L254 81L277 69L299 57L318 45L329 25L342 0L329 19L307 37L268 45L237 60L216 86V69L201 92L173 117L184 106L191 81V57L179 81L162 97L144 111L108 133Z" fill="#57CFF7"/>
</svg>
