<svg width="97" height="96" viewBox="0 0 97 96" fill="none" xmlns="http://www.w3.org/2000/svg">
<ellipse cx="38.4587" cy="61.456" rx="38.4" ry="34.5439" fill="#F88158"/>
<path d="M23.9421 93.1214C13.6052 81.4846 11.4154 74.0843 12.7346 59.6191C14.4172 43.765 21.8766 36.8445 35.9925 27.3919" stroke="black" stroke-width="6"/>
<path d="M5.16746 45.1437C4.82838 56.706 6.54543 60.2367 12.6205 58.5678C17.5732 60.3845 21.1736 58.876 27.3087 55.4464C41.4976 44.8545 52.1647 40.8716 67.1711 39.2264M0.763794 65.9033L12.6205 69.0247C37.1552 70.8905 51.0452 70.9772 76.8592 63.7182" stroke="black" stroke-width="6"/>
<path d="M6.04797 79.3677C7.15695 78.0135 8.52583 77.7192 12.9177 78.4082C23.9539 80.4193 29.8374 83.1619 40.2205 88.6434" stroke="black" stroke-width="6"/>
<path d="M39.8683 88.3236C46.1483 90.6176 50.0532 91.3255 58.3637 90.5625" stroke="black" stroke-width="6"/>
<path d="M24.7443 26.7113L16.5157 32.9372L26.8015 29.3222L35.7157 27.7155H47.6015L54.23 30.3264L61.3158 34.7448L66.8015 37.7573L71.3729 45.59L75.2586 54.0251V58.2427V65.272V72.3013L78.23 68.0837L83.2586 63.4644L85.5443 57.0377L88.7443 50.2092L89.8872 44.5858V39.1632L96.0586 32.9372L89.8872 36.1506L87.3729 39.1632L85.5443 42.3766V46.9958L83.2586 50.2092L80.5158 54.0251V51.8159L83.2586 46.9958L84.4015 40.9707V36.1506L87.3729 32.9372L91.4872 27.7155L93.5443 22.2929L88.7443 26.7113L84.4015 27.7155L78.23 30.3264L75.2586 32.9372V29.3222L79.1443 25.1046L85.5443 21.2887L89.8872 16.2678L91.4872 11.4477L93.5443 3.8159L91.4872 7.43096L88.7443 10.2427L81.8872 13.8577L75.2586 16.2678L70.23 17.272L66.8015 19.4812L63.3729 21.2887L61.3158 25.3054L59.9443 29.3222V26.7113V23.4979L63.3729 19.4812L66.8015 17.272L72.7443 13.8577H71.3729L68.4015 14.8619L63.3729 16.2678L58.1157 18.477L52.63 23.4979L54.23 21.2887L58.1157 16.2678L63.3729 13.8577L68.4015 11.4477L72.7443 9.03766L75.2586 5.02092L78.23 0L75.2586 3.8159L70.23 7.43096L61.3158 9.03766L54.23 12.0502L49.43 17.272V13.8577L46.0015 18.477L39.6015 23.4979L42.1157 21.2887L43.7157 16.2678V11.4477L40.9729 16.2678L37.0872 19.4812L32.9729 22.2929L24.7443 26.7113Z" fill="#57CFF7"/>
</svg>
